<svg width="20" height="20" viewBox="0 0 20 20" fill="none" xmlns="http://www.w3.org/2000/svg">
<path d="M7.63209 4.76019L7.29654 4.00521C7.07714 3.51157 6.96744 3.26473 6.80339 3.07584C6.59778 2.83912 6.32977 2.66495 6.02994 2.57321C5.7907 2.5 5.52059 2.5 4.98039 2.5C4.19014 2.5 3.79501 2.5 3.46332 2.65191C3.0726 2.83085 2.71974 3.2194 2.57915 3.6255C2.4598 3.97024 2.49399 4.32453 2.56236 5.03308C3.29014 12.5752 7.42506 16.7101 14.9671 17.4378C15.6757 17.5062 16.03 17.5404 16.3747 17.4211C16.7808 17.2805 17.1693 16.9276 17.3483 16.5369C17.5002 16.2052 17.5002 15.8101 17.5002 15.0198C17.5002 14.4796 17.5002 14.2095 17.427 13.9702C17.3353 13.6704 17.1611 13.4024 16.9243 13.1968C16.7355 13.0327 16.4887 12.9231 15.995 12.7037L15.24 12.3681C14.7054 12.1305 14.4381 12.0117 14.1665 11.9859C13.9065 11.9612 13.6444 11.9977 13.4011 12.0924C13.1468 12.1914 12.9222 12.3787 12.4727 12.7532C12.0253 13.126 11.8017 13.3124 11.5283 13.4122C11.286 13.5007 10.9657 13.5336 10.7105 13.4959C10.4226 13.4535 10.2022 13.3358 9.76126 13.1001C8.38959 12.3671 7.63315 11.6107 6.9001 10.2389C6.66449 9.79808 6.54669 9.57758 6.50427 9.28975C6.46666 9.0345 6.49944 8.71417 6.58796 8.47192C6.68781 8.19857 6.87422 7.97488 7.24704 7.5275C7.62156 7.07807 7.80883 6.85335 7.90784 6.59909C8.00259 6.35578 8.03906 6.09367 8.01434 5.83373C7.98849 5.5621 7.86969 5.2948 7.63209 4.76019Z" stroke="#575757" stroke-width="1.25" stroke-linecap="round"/>
</svg>
