<svg width="20" height="20" viewBox="0 0 20 20" fill="none" xmlns="http://www.w3.org/2000/svg">
<path d="M12.0834 7.49984C12.0834 8.65042 11.1506 9.58317 10 9.58317C8.84944 9.58317 7.91669 8.65042 7.91669 7.49984C7.91669 6.34925 8.84944 5.4165 10 5.4165C11.1506 5.4165 12.0834 6.34925 12.0834 7.49984Z" stroke="#575757" stroke-width="1.25"/>
<path d="M11.0479 14.5778C10.7668 14.8485 10.3911 14.9998 10.0002 14.9998C9.60919 14.9998 9.23352 14.8485 8.95244 14.5778C6.3786 12.0838 2.92935 9.29775 4.61145 5.25295C5.52094 3.06594 7.70414 1.6665 10.0002 1.6665C12.2962 1.6665 14.4794 3.06595 15.3889 5.25295C17.0689 9.29267 13.628 12.0924 11.0479 14.5778Z" stroke="#575757" stroke-width="1.25"/>
<path d="M15 16.6665C15 17.587 12.7614 18.3332 10 18.3332C7.23859 18.3332 5.00002 17.587 5.00002 16.6665" stroke="#575757" stroke-width="1.25" stroke-linecap="round"/>
</svg>
