<svg width="20" height="20" viewBox="0 0 20 20" fill="none" xmlns="http://www.w3.org/2000/svg">
<path d="M5.83331 7.0835L8.285 8.533C9.71431 9.37808 10.2856 9.37808 11.715 8.533L14.1666 7.0835" stroke="#575757" stroke-width="1.25" stroke-linecap="round" stroke-linejoin="round"/>
<path d="M1.67982 11.2295C1.73431 13.7841 1.76154 15.0614 2.70415 16.0076C3.64676 16.9539 4.95863 16.9868 7.58238 17.0527C9.19944 17.0934 10.8006 17.0934 12.4177 17.0527C15.0414 16.9868 16.3533 16.9539 17.2959 16.0076C18.2385 15.0614 18.2658 13.7841 18.3202 11.2295C18.3378 10.4081 18.3378 9.59153 18.3202 8.7702C18.2658 6.21555 18.2385 4.93825 17.2959 3.99205C16.3533 3.04586 15.0414 3.0129 12.4177 2.94698C10.8006 2.90635 9.19944 2.90635 7.58237 2.94697C4.95863 3.01289 3.64676 3.04585 2.70415 3.99205C1.76154 4.93824 1.7343 6.21555 1.67982 8.77011C1.66231 9.59153 1.66231 10.4081 1.67982 11.2295Z" stroke="#575757" stroke-width="1.25" stroke-linejoin="round"/>
</svg>
