<svg width="24" height="24" viewBox="0 0 24 24" fill="none" xmlns="http://www.w3.org/2000/svg">
<path d="M18.6509 5.25505C17.7804 4.37799 16.7442 3.68277 15.6026 3.2098C14.461 2.73684 13.2366 2.49558 12.0009 2.50006C10.349 2.50168 8.7264 2.9373 7.29574 3.76329C5.86508 4.58929 4.67656 5.77668 3.84919 7.20653C3.02181 8.6364 2.58465 10.2586 2.58144 11.9105C2.57825 13.5625 3.00914 15.1863 3.83097 16.6194L2.50098 21.5L7.48846 20.1938C8.86566 20.9599 10.4131 21.3683 11.9891 21.3813C14.4943 21.3814 16.8982 20.3918 18.6773 18.6282C20.4565 16.8646 21.4671 14.4696 21.489 11.9644C21.4807 10.7143 21.2256 9.4782 20.7387 8.32688C20.2517 7.17554 19.5421 6.13166 18.6509 5.25505ZM12.0009 19.7544C10.597 19.7553 9.21865 19.3779 8.01096 18.6619L7.72596 18.4838L4.76909 19.2675L5.55284 16.3819L5.36284 16.085C4.35258 14.4542 3.97554 12.5095 4.30314 10.6192C4.63075 8.72902 5.64025 7.02461 7.1404 5.82888C8.64057 4.63315 10.5271 4.02915 12.4428 4.13131C14.3585 4.23346 16.1702 5.03468 17.5347 6.38317C19.0262 7.84164 19.88 9.83108 19.9097 11.9169C19.8909 14.002 19.0493 15.9954 17.5682 17.4632C16.0871 18.931 14.0862 19.7545 12.0009 19.7544ZM16.2878 13.8882C16.0503 13.7694 14.8984 13.1994 14.6847 13.1282C14.4709 13.0569 14.3047 13.0094 14.1503 13.2469C13.918 13.5653 13.6682 13.8705 13.4022 14.1613C13.2716 14.3275 13.1291 14.3394 12.8916 14.1613C11.5375 13.6262 10.4093 12.6406 9.6972 11.3707C9.44783 10.955 9.9347 10.9788 10.3859 10.0882C10.4193 10.0239 10.4367 9.95268 10.4367 9.88036C10.4367 9.80804 10.4193 9.73679 10.3859 9.67255C10.3859 9.55378 9.85157 8.39004 9.66157 7.92692C9.47158 7.46379 9.28158 7.53504 9.1272 7.52317H8.66408C8.54408 7.52501 8.42587 7.55245 8.31733 7.60364C8.20879 7.65484 8.11244 7.72862 8.03471 7.82004C7.76826 8.07913 7.56043 8.39232 7.42524 8.7385C7.29004 9.08468 7.23062 9.45582 7.25096 9.82692C7.32542 10.7153 7.65997 11.562 8.21283 12.2613C9.22481 13.7763 10.6117 15.0036 12.2384 15.8238C13.0917 16.3218 14.0832 16.5301 15.0647 16.4175C15.3915 16.3527 15.7011 16.2198 15.9731 16.0274C16.2453 15.8352 16.4739 15.5877 16.644 15.3013C16.8017 14.9517 16.8514 14.563 16.7865 14.185C16.6797 14.0663 16.5253 14.0069 16.2878 13.8882Z" fill="#181818"/>
</svg>
