<svg width="64" height="64" viewBox="0 0 64 64" fill="none" xmlns="http://www.w3.org/2000/svg">
<path fill-rule="evenodd" clip-rule="evenodd" d="M59.8716 28.6552C59.941 29.475 59.9765 30.3045 59.9765 31.1421C59.9776 33.2533 59.7498 35.3584 59.2971 37.4206C57.9854 43.3845 54.8451 48.6663 50.4943 52.6464C47.4077 55.4702 43.7118 57.6389 39.628 58.9315C39.1761 59.0746 38.693 58.8238 38.5499 58.3719C38.4069 57.92 38.6577 57.4369 39.1096 57.2938C42.9526 56.0773 46.4302 54.0361 49.3349 51.3789C53.429 47.6335 56.385 42.6637 57.6194 37.0515C58.0454 35.1106 58.2598 33.1292 58.2586 31.1421C58.2586 30.3966 58.2288 29.6581 58.1704 28.9275C56.1414 28.7983 54.5335 27.1095 54.5335 25.0481C54.5335 22.9026 56.2754 21.1608 58.4209 21.1608C60.5662 21.1608 62.3081 22.9026 62.3081 25.0481C62.3081 26.6809 61.2994 28.0799 59.8716 28.6552ZM58.4209 22.8787C57.2234 22.8787 56.2513 23.8507 56.2513 25.0481C56.2513 26.2456 57.2234 27.2176 58.4209 27.2176C59.6182 27.2176 60.5903 26.2456 60.5903 25.0481C60.5903 23.8507 59.6182 22.8787 58.4209 22.8787ZM18.4564 57.5283C15.7974 56.2766 13.3425 54.6308 11.1746 52.6464C6.82374 48.6663 3.6835 43.3845 2.3718 37.4206C1.91904 35.3584 1.69124 33.2533 1.69239 31.1421C1.69239 28.9869 1.927 26.8861 2.3718 24.8637C2.47364 24.4006 2.93219 24.1074 3.39515 24.2093C3.85811 24.3111 4.15137 24.7697 4.04953 25.2326C3.63086 27.1361 3.41024 29.1135 3.41024 31.1421C3.41024 33.1706 3.63086 35.148 4.04953 37.0515C5.28393 42.6637 8.23987 47.6335 12.334 51.3789C14.3467 53.2212 16.6224 54.7537 19.0864 55.9259C19.7866 54.8996 20.9651 54.2254 22.3 54.2254C24.4455 54.2254 26.1874 55.9671 26.1874 58.1126C26.1874 60.2581 24.4455 62 22.3 62C20.1545 62 18.4128 60.2581 18.4128 58.1126C18.4128 57.9141 18.4277 57.7189 18.4564 57.5283ZM22.3 55.9432C21.1027 55.9432 20.1306 56.9153 20.1306 58.1126C20.1306 59.31 21.1027 60.2821 22.3 60.2821C23.4974 60.2821 24.4695 59.31 24.4695 58.1126C24.4695 56.9153 23.4974 55.9432 22.3 55.9432ZM15.2533 8.57693C15.5096 9.10499 15.6424 9.68447 15.6416 10.2715C15.6416 12.4169 13.8997 14.1589 11.7542 14.1589C9.60888 14.1589 7.86697 12.4169 7.86697 10.2715C7.86697 8.12599 9.60888 6.38421 11.7542 6.38421C12.635 6.38304 13.4898 6.68231 14.1775 7.23259C16.5872 5.54884 19.2385 4.2406 22.0409 3.35257C24.8159 2.47413 27.7703 2 30.8344 2C33.8986 2 36.8529 2.47413 39.628 3.35257C43.7118 4.64537 47.4077 6.81392 50.4943 9.6377C50.6623 9.79152 50.7624 10.0057 50.7725 10.2333C50.7826 10.4609 50.702 10.6831 50.5483 10.8512C50.3945 11.0192 50.1803 11.1193 49.9528 11.1294C49.7252 11.1395 49.503 11.0589 49.3349 10.9052C46.4302 8.24796 42.9526 6.2069 39.1096 4.99042C36.4981 4.16364 33.718 3.71785 30.8344 3.71785C27.951 3.71785 25.1708 4.16364 22.5593 4.99042C19.9586 5.81452 17.4959 7.02343 15.2533 8.57693ZM11.7542 8.10207C10.5569 8.10207 9.58483 9.07412 9.58483 10.2715C9.58483 11.4688 10.5569 12.441 11.7542 12.441C12.9517 12.441 13.9238 11.4688 13.9238 10.2715C13.9238 9.07412 12.9517 8.10207 11.7542 8.10207ZM40.0374 25.2206H41.6669C42.4959 25.2206 43.1678 25.8927 43.1678 26.7216V35.8919C43.1678 42.6998 37.5981 48.2694 30.7903 48.2694C23.9824 48.2694 18.4128 42.6998 18.4128 35.8919V26.7216C18.4128 25.8927 19.0848 25.2206 19.9138 25.2206H21.5432V21.6881C21.5432 19.1431 22.5817 16.8309 24.2585 15.1542C25.933 13.4797 28.2451 12.441 30.7903 12.441C33.3351 12.441 35.6471 13.4794 37.3238 15.1537L37.3245 15.1546C38.9989 16.8312 40.0374 19.1432 40.0374 21.6881V25.2206ZM23.261 25.2206H25.2015V21.6881C25.2015 20.1524 25.8289 18.7546 26.8453 17.7403C27.8595 16.7264 29.2549 16.0992 30.7903 16.0992C32.3257 16.0992 33.7235 16.7267 34.7377 17.7407C35.7517 18.7549 36.3792 20.1526 36.3792 21.6881V25.2206H38.3195V21.6881C38.3195 19.616 37.4726 17.7341 36.1095 16.3689C34.7443 15.0058 32.8624 14.1589 30.7903 14.1589C28.7183 14.1589 26.8364 15.0056 25.4731 16.3689C24.1081 17.734 23.261 19.616 23.261 21.6881V25.2206ZM26.9193 25.2206H34.6613V21.6881C34.6613 20.6249 34.2251 19.6577 33.5229 18.9555C32.8207 18.2532 31.8535 17.817 30.7903 17.817C29.7272 17.817 28.7619 18.2534 28.0597 18.9555L28.059 18.9562C27.3553 19.6582 26.9193 20.6251 26.9193 21.6881V25.2206ZM20.1306 26.9385V35.8919C20.1306 41.755 24.9272 46.5516 30.7903 46.5516C36.6533 46.5516 41.4499 41.755 41.4499 35.8919V26.9385H20.1306ZM24.8763 33.7652C24.7063 33.9168 24.4831 33.9947 24.2557 33.9818C24.0283 33.9689 23.8154 33.8663 23.6636 33.6964C23.512 33.5264 23.4341 33.3031 23.4471 33.0757C23.46 32.8483 23.5626 32.6353 23.7325 32.4836C25.6079 30.8097 28.0812 29.7918 30.7903 29.7918C33.4994 29.7918 35.9727 30.8097 37.8481 32.4836C38.0179 32.6353 38.1206 32.8483 38.1335 33.0757C38.1465 33.3031 38.0686 33.5264 37.917 33.6964C37.7653 33.8662 37.5523 33.9689 37.3249 33.9818C37.0975 33.9947 36.8742 33.9168 36.7042 33.7652C35.1328 32.3626 33.0603 31.5097 30.7903 31.5097C28.5202 31.5097 26.4479 32.3626 24.8763 33.7652ZM30.7903 37.723C32.0912 37.723 33.1473 38.7791 33.1473 40.0801C33.1473 41.3808 32.0912 42.437 30.7903 42.437C29.4895 42.437 28.4334 41.3808 28.4334 40.0801C28.4334 38.7791 29.4895 37.723 30.7903 37.723ZM30.7903 39.4409C30.6208 39.441 30.4583 39.5084 30.3385 39.6282C30.2186 39.7481 30.1513 39.9106 30.1512 40.0801C30.1513 40.2495 30.2186 40.412 30.3385 40.5318C30.4583 40.6517 30.6208 40.719 30.7903 40.7191C30.9597 40.719 31.1223 40.6517 31.2421 40.5319C31.362 40.412 31.4293 40.2495 31.4294 40.0801C31.4294 39.9106 31.362 39.748 31.2422 39.6282C31.1223 39.5083 30.9598 39.441 30.7903 39.4409ZM35.0172 35.6555C35.187 35.8072 35.2897 36.0202 35.3026 36.2476C35.3155 36.475 35.2376 36.6982 35.086 36.8682C34.9343 37.038 34.7213 37.1407 34.4939 37.1536C34.2664 37.1665 34.0432 37.0886 33.8732 36.937C33.054 36.2058 31.9736 35.7611 30.7903 35.7611C29.6069 35.7611 28.5265 36.2058 27.7073 36.937C27.5373 37.0886 27.3141 37.1665 27.0867 37.1536C26.8593 37.1407 26.6463 37.038 26.4945 36.8682C26.343 36.6982 26.2651 36.4749 26.278 36.2475C26.291 36.0202 26.3936 35.8072 26.5635 35.6555C27.6866 34.653 29.1679 34.0433 30.7903 34.0433C32.4128 34.0433 33.8939 34.653 35.0172 35.6555Z" fill="#FD601A"/>
</svg>
