<svg width="64" height="64" viewBox="0 0 64 64" fill="none" xmlns="http://www.w3.org/2000/svg">
<path fill-rule="evenodd" clip-rule="evenodd" d="M59.8716 28.6552C59.941 29.475 59.9765 30.3045 59.9765 31.1421C59.9776 33.2533 59.7498 35.3584 59.2971 37.4206C57.9854 43.3845 54.8451 48.6663 50.4943 52.6464C47.4077 55.4702 43.7118 57.6389 39.628 58.9315C39.1761 59.0746 38.693 58.8238 38.5499 58.3719C38.4069 57.92 38.6577 57.4369 39.1096 57.2938C42.9526 56.0773 46.4302 54.0361 49.3349 51.3789C53.429 47.6335 56.385 42.6637 57.6194 37.0515C58.0454 35.1106 58.2598 33.1292 58.2586 31.1421C58.2586 30.3966 58.2288 29.6581 58.1704 28.9275C56.1414 28.7983 54.5335 27.1095 54.5335 25.0481C54.5335 22.9026 56.2754 21.1608 58.4209 21.1608C60.5662 21.1608 62.3081 22.9026 62.3081 25.0481C62.3081 26.6809 61.2994 28.0799 59.8716 28.6552ZM58.4209 22.8787C57.2234 22.8787 56.2513 23.8507 56.2513 25.0481C56.2513 26.2456 57.2234 27.2176 58.4209 27.2176C59.6182 27.2176 60.5903 26.2456 60.5903 25.0481C60.5903 23.8507 59.6182 22.8787 58.4209 22.8787ZM18.4564 57.5283C15.7974 56.2766 13.3425 54.6308 11.1746 52.6464C6.82374 48.6663 3.6835 43.3845 2.3718 37.4206C1.91904 35.3584 1.69124 33.2533 1.69239 31.1421C1.69239 28.9869 1.927 26.8861 2.3718 24.8637C2.47364 24.4006 2.93219 24.1074 3.39515 24.2093C3.85811 24.3111 4.15137 24.7697 4.04953 25.2326C3.63086 27.1361 3.41024 29.1135 3.41024 31.1421C3.41024 33.1706 3.63086 35.148 4.04953 37.0515C5.28393 42.6637 8.23987 47.6335 12.334 51.3789C14.3467 53.2212 16.6224 54.7537 19.0864 55.9259C19.7865 54.8996 20.9651 54.2254 22.3 54.2254C24.4455 54.2254 26.1874 55.9671 26.1874 58.1126C26.1874 60.2581 24.4455 62 22.3 62C20.1545 62 18.4128 60.2581 18.4128 58.1126C18.4128 57.9141 18.4277 57.7189 18.4564 57.5283ZM22.3 55.9432C21.1027 55.9432 20.1306 56.9153 20.1306 58.1126C20.1306 59.31 21.1027 60.2821 22.3 60.2821C23.4974 60.2821 24.4695 59.31 24.4695 58.1126C24.4695 56.9153 23.4974 55.9432 22.3 55.9432ZM15.2533 8.57693C15.5096 9.10499 15.6424 9.68447 15.6416 10.2715C15.6416 12.4169 13.8997 14.1589 11.7542 14.1589C9.60888 14.1589 7.86697 12.4169 7.86697 10.2715C7.86697 8.12599 9.60888 6.38421 11.7542 6.38421C12.635 6.38304 13.4898 6.68231 14.1775 7.23259C16.5872 5.54884 19.2385 4.2406 22.0409 3.35257C24.8159 2.47413 27.7703 2 30.8344 2C33.8986 2 36.8529 2.47413 39.628 3.35257C43.7118 4.64537 47.4077 6.81392 50.4943 9.6377C50.6623 9.79152 50.7624 10.0057 50.7725 10.2333C50.7826 10.4609 50.702 10.6831 50.5483 10.8512C50.3945 11.0192 50.1803 11.1193 49.9528 11.1294C49.7252 11.1395 49.503 11.0589 49.3349 10.9052C46.4302 8.24796 42.9526 6.2069 39.1096 4.99042C36.4981 4.16364 33.718 3.71785 30.8344 3.71785C27.951 3.71785 25.1708 4.16364 22.5593 4.99042C19.9586 5.81452 17.4959 7.02343 15.2533 8.57693ZM11.7542 8.10207C10.5569 8.10207 9.58483 9.07412 9.58483 10.2715C9.58483 11.4688 10.5569 12.441 11.7542 12.441C12.9517 12.441 13.9238 11.4688 13.9238 10.2715C13.9238 9.07412 12.9517 8.10207 11.7542 8.10207Z" fill="#181818"/>
<path fill-rule="evenodd" clip-rule="evenodd" d="M46.4571 35.184C44.1259 35.184 42.9556 38.0088 44.6043 39.6574C45.3519 40.4052 45.3519 41.6215 44.6043 42.3693L42.3693 44.6043C41.6215 45.3519 40.4052 45.3519 39.6574 44.6043C38.0088 42.9556 35.184 44.1259 35.184 46.4571C35.184 47.5188 34.3256 48.3736 33.2674 48.3736H30.1063C29.048 48.3736 28.1898 47.5188 28.1898 46.4571C28.1898 44.1231 25.3664 42.9541 23.7162 44.6043C22.9681 45.3524 21.7545 45.3524 21.0066 44.6045L18.7695 42.3693C18.0218 41.6215 18.0218 40.4052 18.7695 39.6574C20.4182 38.0088 19.2492 35.184 16.9166 35.184C15.8584 35.184 15 34.3256 15 33.2674V30.1063C15 29.048 15.8584 28.1898 16.9166 28.1898C19.2492 28.1898 20.4182 25.365 18.7695 23.7162C18.0213 22.9681 18.0213 21.7545 18.7695 21.0063L21.0063 18.7695C21.7545 18.0213 22.9681 18.0213 23.7162 18.7695C25.365 20.4182 28.1898 19.2491 28.1898 16.9166C28.1898 15.8584 29.048 15 30.1063 15H33.2674C34.3256 15 35.184 15.8584 35.184 16.9166C35.184 19.2491 38.0088 20.4182 39.6574 18.7695C40.4052 18.0218 41.6215 18.0218 42.3693 18.7695L44.6043 21.0063C45.3524 21.7545 45.3524 22.9681 44.6043 23.7162C42.9556 25.365 44.1259 28.1898 46.4571 28.1898C47.5188 28.1898 48.3736 29.048 48.3736 30.1063V33.2674C48.3736 34.3256 47.5188 35.184 46.4571 35.184ZM46.4571 33.4271C46.4781 33.4271 46.4989 33.423 46.5183 33.415C46.5377 33.407 46.5553 33.3952 46.5701 33.3804C46.585 33.3655 46.5967 33.3479 46.6047 33.3285C46.6127 33.3091 46.6168 33.2883 46.6168 33.2674V30.1063C46.6168 30.0853 46.6127 30.0645 46.6047 30.0451C46.5967 30.0258 46.5849 30.0081 46.5701 29.9933C46.5552 29.9785 46.5376 29.9667 46.5183 29.9587C46.4989 29.9507 46.4781 29.9466 46.4571 29.9466C42.563 29.9466 40.6079 25.228 43.3619 22.4739C43.4242 22.4117 43.4242 22.3108 43.3619 22.2487L41.1269 20.0117C41.0968 19.9816 41.056 19.9647 41.0134 19.9647C40.9708 19.9647 40.9299 19.9816 40.8998 20.0117C38.1457 22.7658 33.4271 20.813 33.4271 16.9166C33.4271 16.8284 33.3556 16.7569 33.2674 16.7569H30.1063C30.0182 16.7569 29.9466 16.8284 29.9466 16.9166C29.9466 20.813 25.228 22.7658 22.4739 20.0117C22.4441 19.9819 22.4036 19.9651 22.3613 19.9651C22.3191 19.9651 22.2786 19.9819 22.2487 20.0117L20.0118 22.2487C19.997 22.2635 19.9853 22.281 19.9773 22.3004C19.9693 22.3197 19.9652 22.3404 19.9652 22.3613C19.9652 22.3822 19.9693 22.4029 19.9773 22.4223C19.9853 22.4416 19.997 22.4592 20.0118 22.4739C22.7658 25.228 20.813 29.9466 16.9166 29.9466C16.8284 29.9466 16.7569 30.0182 16.7569 30.1063V33.2674C16.7569 33.3556 16.8284 33.4271 16.9166 33.4271C20.813 33.4271 22.7658 38.1457 20.0118 40.8998C19.9817 40.9299 19.9648 40.9707 19.9647 41.0133C19.9647 41.0559 19.9816 41.0968 20.0117 41.1269L22.2487 43.3619C22.2635 43.3767 22.281 43.3884 22.3004 43.3965C22.3197 43.4045 22.3404 43.4086 22.3613 43.4086C22.3822 43.4086 22.403 43.4045 22.4223 43.3965C22.4416 43.3884 22.4592 43.3767 22.4739 43.3619C25.2303 40.6055 29.9466 42.5584 29.9466 46.4571C29.9466 46.5456 30.0182 46.6168 30.1063 46.6168H33.2674C33.2883 46.6168 33.3091 46.6127 33.3285 46.6047C33.3479 46.5967 33.3655 46.585 33.3804 46.5701C33.3952 46.5553 33.407 46.5377 33.415 46.5183C33.423 46.4989 33.4271 46.4781 33.4271 46.4571C33.4271 42.563 38.1457 40.6079 40.8998 43.3619C40.9299 43.392 40.9708 43.4089 41.0134 43.4089C41.056 43.4089 41.0968 43.392 41.1269 43.3619L43.3619 41.1269C43.392 41.0968 43.4089 41.056 43.4089 41.0134C43.4089 40.9708 43.392 40.9299 43.3619 40.8998C40.6079 38.1457 42.563 33.4271 46.4571 33.4271ZM31.6878 40.9121C26.6062 40.9121 22.4635 36.767 22.4635 31.6878C22.4635 26.6062 26.6062 22.4634 31.6878 22.4634C36.767 22.4634 40.9121 26.6062 40.9121 31.6878C40.9121 36.767 36.767 40.9121 31.6878 40.9121ZM31.6878 39.1552C35.7996 39.1552 39.1552 35.7996 39.1552 31.6878C39.1552 27.5741 35.7996 24.2203 31.6878 24.2203C27.5741 24.2203 24.2204 27.5741 24.2204 31.6878C24.2204 35.7996 27.5741 39.1552 31.6878 39.1552ZM27.5662 32.0308C27.2019 31.7109 27.1658 31.1554 27.4856 30.7911C27.8055 30.4268 28.3611 30.3907 28.7254 30.7106L30.74 32.4795L34.6501 29.0649C35.0153 28.7461 35.5707 28.7836 35.8896 29.1488C36.2085 29.5139 36.1709 30.0694 35.8058 30.3882L31.3161 34.3088C31.1557 34.4488 30.95 34.5258 30.7371 34.5255C30.5242 34.5252 30.3187 34.4476 30.1587 34.3072L27.5662 32.0308Z" fill="#181818"/>
</svg>
