<svg width="18" height="18" viewBox="0 0 18 18" fill="none" xmlns="http://www.w3.org/2000/svg">
<path d="M8.75145 3.90931C8.85495 3.69722 9.14505 3.69723 9.24855 3.90931L9.85868 5.15996C9.89918 5.24297 9.97523 5.30074 10.0634 5.3154L11.3897 5.53604C11.6144 5.57343 11.7041 5.86117 11.5433 6.02952L10.5938 7.02397C10.5309 7.08985 10.5019 7.18314 10.5158 7.27506L10.725 8.66292C10.7605 8.89797 10.5259 9.07587 10.3229 8.96787L9.1266 8.33135C9.0471 8.28897 8.9529 8.28897 8.8734 8.33135L7.67715 8.96787C7.47416 9.07587 7.23953 8.89797 7.27497 8.66292L7.48425 7.27506C7.49811 7.18314 7.46912 7.08985 7.40621 7.02397L6.45672 6.02952C6.29598 5.86117 6.38556 5.57343 6.61035 5.53604L7.93665 5.3154C8.02478 5.30074 8.10082 5.24297 8.14132 5.15996L8.75145 3.90931Z" stroke="#181818" stroke-width="1.125" stroke-linecap="round" stroke-linejoin="round"/>
<path d="M14.25 6.75C14.25 9.6495 11.8995 12 9 12C6.10051 12 3.75 9.6495 3.75 6.75C3.75 3.85051 6.10051 1.5 9 1.5C11.8995 1.5 14.25 3.85051 14.25 6.75Z" stroke="#181818" stroke-width="1.125" stroke-linecap="round" stroke-linejoin="round"/>
<path d="M9.75 12.2568L10.9698 15.4885C11.2156 16.1396 11.3385 16.4652 11.5522 16.5C11.7665 16.4684 12.029 16.1103 12.2856 15.4629C12.4694 14.9993 12.5611 14.7676 12.7504 14.6426C12.8084 14.6043 12.8719 14.574 12.939 14.5526C13.1577 14.4831 13.4092 14.5511 13.9123 14.6871C14.4502 14.8325 14.8238 14.7919 14.9713 14.6871C15.0148 14.6563 14.9713 14.6848 14.9713 14.6848C15.0582 14.5307 14.941 14.2904 14.7066 13.8098L13.0921 10.5" stroke="#181818" stroke-width="1.125" stroke-linecap="round" stroke-linejoin="round"/>
<path d="M8.25 12.2566L7.0302 15.4877C6.78443 16.1387 6.54128 16.4652 6.32753 16.5C6.11323 16.4684 5.98494 16.1447 5.72836 15.4974C5.54465 15.034 5.43881 14.767 5.24961 14.642C5.1916 14.6036 5.12809 14.5734 5.06102 14.552C4.84229 14.4825 4.59076 14.5505 4.0877 14.6865C3.54981 14.8319 3.17618 14.789 3.02861 14.6841C2.94178 14.5301 3.059 14.2898 3.29342 13.8093L4.9079 10.5" stroke="#181818" stroke-width="1.125" stroke-linecap="round" stroke-linejoin="round"/>
</svg>
