<svg width="64" height="64" viewBox="0 0 64 64" fill="none" xmlns="http://www.w3.org/2000/svg">
<path fill-rule="evenodd" clip-rule="evenodd" d="M59.8716 28.6552C59.941 29.475 59.9765 30.3045 59.9765 31.1421C59.9776 33.2533 59.7498 35.3584 59.2971 37.4206C57.9854 43.3845 54.8451 48.6663 50.4943 52.6464C47.4077 55.4702 43.7118 57.6389 39.628 58.9315C39.1761 59.0746 38.693 58.8238 38.5499 58.3719C38.4069 57.92 38.6577 57.4369 39.1096 57.2938C42.9526 56.0773 46.4302 54.0361 49.3349 51.3789C53.429 47.6335 56.385 42.6637 57.6194 37.0515C58.0454 35.1106 58.2598 33.1292 58.2586 31.1421C58.2586 30.3966 58.2288 29.6581 58.1704 28.9275C56.1414 28.7983 54.5335 27.1095 54.5335 25.0481C54.5335 22.9026 56.2754 21.1608 58.4209 21.1608C60.5662 21.1608 62.3081 22.9026 62.3081 25.0481C62.3081 26.6809 61.2994 28.0799 59.8716 28.6552ZM58.4209 22.8787C57.2234 22.8787 56.2513 23.8507 56.2513 25.0481C56.2513 26.2456 57.2234 27.2176 58.4209 27.2176C59.6182 27.2176 60.5903 26.2456 60.5903 25.0481C60.5903 23.8507 59.6182 22.8787 58.4209 22.8787ZM18.4564 57.5283C15.7974 56.2766 13.3425 54.6308 11.1746 52.6464C6.82374 48.6663 3.6835 43.3845 2.3718 37.4206C1.91904 35.3584 1.69124 33.2533 1.69239 31.1421C1.69239 28.9869 1.927 26.8861 2.3718 24.8637C2.47364 24.4006 2.93219 24.1074 3.39515 24.2093C3.85811 24.3111 4.15137 24.7697 4.04953 25.2326C3.63086 27.1361 3.41024 29.1135 3.41024 31.1421C3.41024 33.1706 3.63086 35.148 4.04953 37.0515C5.28393 42.6637 8.23987 47.6335 12.334 51.3789C14.3467 53.2212 16.6224 54.7537 19.0864 55.9259C19.7865 54.8996 20.9651 54.2254 22.3 54.2254C24.4455 54.2254 26.1874 55.9671 26.1874 58.1126C26.1874 60.2581 24.4455 62 22.3 62C20.1545 62 18.4128 60.2581 18.4128 58.1126C18.4128 57.9141 18.4277 57.7189 18.4564 57.5283ZM22.3 55.9432C21.1027 55.9432 20.1306 56.9153 20.1306 58.1126C20.1306 59.31 21.1027 60.2821 22.3 60.2821C23.4974 60.2821 24.4695 59.31 24.4695 58.1126C24.4695 56.9153 23.4974 55.9432 22.3 55.9432ZM15.2533 8.57693C15.5096 9.10499 15.6424 9.68447 15.6416 10.2715C15.6416 12.4169 13.8997 14.1589 11.7542 14.1589C9.60888 14.1589 7.86697 12.4169 7.86697 10.2715C7.86697 8.12599 9.60888 6.38421 11.7542 6.38421C12.635 6.38304 13.4898 6.68231 14.1775 7.23259C16.5872 5.54884 19.2385 4.2406 22.0409 3.35257C24.8159 2.47413 27.7703 2 30.8344 2C33.8986 2 36.8529 2.47413 39.628 3.35257C43.7118 4.64537 47.4077 6.81392 50.4943 9.6377C50.6623 9.79152 50.7624 10.0057 50.7725 10.2333C50.7826 10.4609 50.702 10.6831 50.5483 10.8512C50.3945 11.0192 50.1803 11.1193 49.9528 11.1294C49.7252 11.1395 49.503 11.0589 49.3349 10.9052C46.4302 8.24796 42.9526 6.2069 39.1096 4.99042C36.4981 4.16364 33.718 3.71785 30.8344 3.71785C27.951 3.71785 25.1708 4.16364 22.5593 4.99042C19.9586 5.81452 17.4959 7.02343 15.2533 8.57693ZM11.7542 8.10207C10.5569 8.10207 9.58483 9.07412 9.58483 10.2715C9.58483 11.4688 10.5569 12.441 11.7542 12.441C12.9517 12.441 13.9238 11.4688 13.9238 10.2715C13.9238 9.07412 12.9517 8.10207 11.7542 8.10207Z" fill="#181818"/>
<path d="M42.835 38.5703C41.96 38.2422 40.9756 38.3516 40.1006 38.8984L34.8506 42.0703C34.6318 41.9063 34.4131 41.7422 34.1943 41.6875L26.2646 38.8437C25.6631 38.625 25.0068 38.625 24.46 38.8984C24.46 38.8984 24.4053 38.8984 24.4053 38.9531L21.2334 40.8672V40.7031C21.2334 40.1016 20.7412 39.6094 20.1396 39.6094H17.5146C16.9131 39.6094 16.4209 40.1016 16.4209 40.7031V48.9063C16.4209 49.5078 16.9131 50 17.5146 50H20.085C20.6865 50 21.1787 49.5078 21.1787 48.9063V48.6328C22.3818 47.9766 22.874 47.375 23.6943 47.4844L32.4443 49.3984C33.1553 49.6172 33.9209 49.4531 34.5771 49.0156L43.4912 41.9609C44.6943 41.1406 44.585 39.2266 42.835 38.5703ZM17.5146 48.9063V40.7031H20.085V48.9063H17.5146ZM42.835 41.0859C33.7568 47.9766 33.9756 48.6875 32.7178 48.3047L23.9131 46.3906H23.8584C22.6006 46.1719 21.7256 47.0469 21.1787 47.3203V42.0703L24.8975 39.8281C25.2256 39.7188 25.5537 39.7188 25.8818 39.8281L33.8115 42.6719C34.5225 42.9453 34.7959 43.8203 34.3584 44.4219C34.0303 44.8594 33.4834 45.0234 32.9365 44.8047L28.2334 43C27.96 42.8906 27.6318 43.0547 27.5225 43.3281C27.4131 43.6016 27.5771 43.9297 27.8506 44.0391L32.5537 45.8438C33.5381 46.2813 34.6318 45.9531 35.2334 45.1328C35.6709 44.5312 35.835 43.8203 35.5068 43L40.7021 39.8828C41.249 39.5547 41.9053 39.4453 42.5068 39.6641C43.3271 39.9375 43.3818 40.7031 42.835 41.0859Z" fill="#181818" stroke="#181818" stroke-width="0.4"/>
<path d="M29.4363 33.1017C29.9284 33.4298 30.2566 33.9767 30.3659 34.5235C29.8738 34.797 29.6003 35.3439 29.6003 35.8907C29.6003 36.6564 30.1472 37.3126 30.9128 37.4767L31.1316 39.2267C31.1863 39.5001 31.405 39.7189 31.6784 39.7189H35.9441C36.2175 39.7189 36.4363 39.5001 36.4909 39.2267L36.7097 37.422C37.3659 37.2032 37.9128 36.6017 37.9128 35.8907C37.9128 35.2892 37.5847 34.797 37.1472 34.5235C37.2019 33.9767 37.53 33.4298 38.0769 33.047C40.1003 31.6251 41.3581 29.3282 41.3581 26.8673C41.3581 22.6017 37.8034 19.1564 33.4831 19.3751C29.6003 19.5392 26.3738 22.8751 26.3191 26.7579C26.155 29.3282 27.3581 31.6798 29.4363 33.1017ZM32.1159 38.6798L32.0066 37.586H35.5613L35.4519 38.6798H32.1159ZM36.1628 36.4923H31.1863C30.9128 36.4923 30.6394 36.2735 30.6394 35.9454C30.6394 35.672 30.8581 35.3985 31.1863 35.3985H36.1628C36.4363 35.3985 36.7097 35.6173 36.7097 35.9454C36.7097 36.2189 36.4909 36.4923 36.1628 36.4923ZM33.3738 20.5235C37.0378 20.3595 40.1003 23.3126 40.1003 26.922C40.1003 29.0548 39.0613 31.0235 37.3113 32.2267C36.5456 32.7189 36.0534 33.4845 35.9441 34.3595H31.4597C31.3503 33.5392 30.8581 32.7735 30.0925 32.2267C28.3425 31.0235 27.3034 29.0001 27.3034 26.8673C27.3581 23.5314 30.0925 20.6876 33.3738 20.5235Z" fill="#181818" stroke="#181818" stroke-width="0.4"/>
<path d="M33.5381 23.2578C35.6162 23.1484 37.3662 24.8438 37.3662 26.9219C37.3662 27.25 37.585 27.4688 37.9131 27.4688C38.2412 27.4688 38.46 27.25 38.46 26.9219C38.46 24.2422 36.2178 22.0547 33.4834 22.1641C33.1553 22.1641 32.9365 22.4375 32.9365 22.7109C32.9365 23.0391 33.21 23.2578 33.5381 23.2578ZM33.7021 18.2266C34.0303 18.2266 34.249 18.0078 34.249 17.6797V15.5469C34.249 15.2187 34.0303 15 33.7021 15C33.374 15 33.1553 15.2187 33.1553 15.5469V17.6797C33.1553 18.0078 33.374 18.2266 33.7021 18.2266ZM29.8193 18.5C29.9287 18.7188 30.0928 18.8281 30.3115 18.8281C30.3662 18.8281 30.4756 18.8281 30.5303 18.7734C30.8037 18.6641 30.9678 18.3359 30.8037 18.0625L29.9834 16.0938C29.874 15.8203 29.5459 15.6562 29.2725 15.8203C28.999 15.9297 28.835 16.2578 28.999 16.5312L29.8193 18.5ZM27.085 20.5781C27.3037 20.7969 27.6318 20.7969 27.8506 20.5781C28.0693 20.3594 28.0693 20.0312 27.8506 19.8125L26.3193 18.2812C26.1006 18.0625 25.7725 18.0625 25.5537 18.2812C25.335 18.5 25.335 18.8281 25.5537 19.0469L27.085 20.5781ZM40.2646 20.7422L41.7959 19.2109C42.0146 18.9922 42.0146 18.6641 41.7959 18.4453C41.5771 18.2266 41.249 18.2266 41.0303 18.4453L39.499 19.9219C39.2803 20.1406 39.2803 20.4688 39.499 20.6875C39.6631 20.9062 40.0459 20.9062 40.2646 20.7422ZM36.8193 18.8828C36.874 18.9375 36.9834 18.9375 37.0381 18.9375C37.2568 18.9375 37.4756 18.8281 37.5303 18.6094L38.3506 16.6406C38.46 16.3672 38.3506 16.0391 38.0771 15.9297C37.8037 15.8203 37.4756 15.9297 37.3662 16.2031L36.5459 18.1719C36.4365 18.4453 36.5459 18.7734 36.8193 18.8828Z" fill="#181818" stroke="#181818" stroke-width="0.4"/>
</svg>
