<svg width="64" height="64" viewBox="0 0 64 64" fill="none" xmlns="http://www.w3.org/2000/svg">
<path fill-rule="evenodd" clip-rule="evenodd" d="M59.8716 28.6552C59.941 29.475 59.9765 30.3045 59.9765 31.1421C59.9776 33.2533 59.7498 35.3584 59.2971 37.4206C57.9854 43.3845 54.8451 48.6663 50.4943 52.6464C47.4077 55.4702 43.7118 57.6389 39.628 58.9315C39.1761 59.0746 38.693 58.8238 38.5499 58.3719C38.4069 57.92 38.6577 57.4369 39.1096 57.2938C42.9526 56.0773 46.4302 54.0361 49.3349 51.3789C53.429 47.6335 56.385 42.6637 57.6194 37.0515C58.0454 35.1106 58.2598 33.1292 58.2586 31.1421C58.2586 30.3966 58.2288 29.6581 58.1704 28.9275C56.1414 28.7983 54.5335 27.1095 54.5335 25.0481C54.5335 22.9026 56.2754 21.1608 58.4209 21.1608C60.5662 21.1608 62.3081 22.9026 62.3081 25.0481C62.3081 26.6809 61.2994 28.0799 59.8716 28.6552ZM58.4209 22.8787C57.2234 22.8787 56.2513 23.8507 56.2513 25.0481C56.2513 26.2456 57.2234 27.2176 58.4209 27.2176C59.6182 27.2176 60.5903 26.2456 60.5903 25.0481C60.5903 23.8507 59.6182 22.8787 58.4209 22.8787ZM18.4564 57.5283C15.7974 56.2766 13.3425 54.6308 11.1746 52.6464C6.82374 48.6663 3.6835 43.3845 2.3718 37.4206C1.91904 35.3584 1.69124 33.2533 1.69239 31.1421C1.69239 28.9869 1.927 26.8861 2.3718 24.8637C2.47364 24.4006 2.93219 24.1074 3.39515 24.2093C3.85811 24.3111 4.15137 24.7697 4.04953 25.2326C3.63086 27.1361 3.41024 29.1135 3.41024 31.1421C3.41024 33.1706 3.63086 35.148 4.04953 37.0515C5.28393 42.6637 8.23987 47.6335 12.334 51.3789C14.3467 53.2212 16.6224 54.7537 19.0864 55.9259C19.7865 54.8996 20.9651 54.2254 22.3 54.2254C24.4455 54.2254 26.1874 55.9671 26.1874 58.1126C26.1874 60.2581 24.4455 62 22.3 62C20.1545 62 18.4128 60.2581 18.4128 58.1126C18.4128 57.9141 18.4277 57.7189 18.4564 57.5283ZM22.3 55.9432C21.1027 55.9432 20.1306 56.9153 20.1306 58.1126C20.1306 59.31 21.1027 60.2821 22.3 60.2821C23.4974 60.2821 24.4695 59.31 24.4695 58.1126C24.4695 56.9153 23.4974 55.9432 22.3 55.9432ZM15.2533 8.57693C15.5096 9.10499 15.6424 9.68447 15.6416 10.2715C15.6416 12.4169 13.8997 14.1589 11.7542 14.1589C9.60888 14.1589 7.86697 12.4169 7.86697 10.2715C7.86697 8.12599 9.60888 6.38421 11.7542 6.38421C12.635 6.38304 13.4898 6.68231 14.1775 7.23259C16.5872 5.54884 19.2385 4.2406 22.0409 3.35257C24.8159 2.47413 27.7703 2 30.8344 2C33.8986 2 36.8529 2.47413 39.628 3.35257C43.7118 4.64537 47.4077 6.81392 50.4943 9.6377C50.6623 9.79152 50.7624 10.0057 50.7725 10.2333C50.7826 10.4609 50.702 10.6831 50.5483 10.8512C50.3945 11.0192 50.1803 11.1193 49.9528 11.1294C49.7252 11.1395 49.503 11.0589 49.3349 10.9052C46.4302 8.24796 42.9526 6.2069 39.1096 4.99042C36.4981 4.16364 33.718 3.71785 30.8344 3.71785C27.951 3.71785 25.1708 4.16364 22.5593 4.99042C19.9586 5.81452 17.4959 7.02343 15.2533 8.57693ZM11.7542 8.10207C10.5569 8.10207 9.58483 9.07412 9.58483 10.2715C9.58483 11.4688 10.5569 12.441 11.7542 12.441C12.9517 12.441 13.9238 11.4688 13.9238 10.2715C13.9238 9.07412 12.9517 8.10207 11.7542 8.10207Z" fill="#181818"/>
<path d="M40.9876 28.7274C40.9876 22.8602 36.2176 18.0864 30.3556 18.0864C24.4929 18.0864 19.7236 22.8602 19.7236 28.7282C19.7236 31.6764 20.9034 34.4184 23.0461 36.4472C24.3639 37.6952 25.1296 39.4922 25.1724 41.3942C24.9424 41.5683 24.7558 41.7932 24.627 42.0513C24.4982 42.3094 24.4307 42.5937 24.4299 42.8822C24.4302 43.3764 24.6256 43.8505 24.9736 44.2014C24.6257 44.5526 24.4305 45.027 24.4306 45.5214C24.4312 46.0204 24.6298 46.4987 24.9828 46.8514C25.3357 47.204 25.8142 47.4022 26.3131 47.4024H27.1996C27.2165 48.2288 27.5562 49.0157 28.1461 49.5946C28.736 50.1736 29.5291 50.4985 30.3556 50.4999C31.1821 50.4983 31.9751 50.1733 32.5649 49.5944C33.1548 49.0155 33.4946 48.2287 33.5116 47.4024H34.3989C34.898 47.4022 35.3766 47.2039 35.7295 46.8511C36.0825 46.4983 36.281 46.0198 36.2814 45.5207C36.2813 45.0262 36.0858 44.5518 35.7376 44.2007C36.0852 43.8498 36.2803 43.376 36.2806 42.8822C36.2806 42.2784 35.9904 41.7467 35.5471 41.4017C35.5891 39.4952 36.3549 37.6944 37.6749 36.4419C38.7262 35.4519 39.5628 34.2562 40.1327 32.9292C40.7026 31.6023 40.9936 30.1723 40.9876 28.7282V28.7274ZM35.1556 42.8829C35.1554 43.0837 35.0755 43.2762 34.9335 43.4181C34.7915 43.56 34.5989 43.6397 34.3981 43.6397H26.3131C26.1165 43.6335 25.9299 43.551 25.793 43.4097C25.656 43.2684 25.5795 43.0793 25.5795 42.8826C25.5795 42.6858 25.656 42.4967 25.793 42.3554C25.9299 42.2141 26.1165 42.1316 26.3131 42.1254H34.3981C34.8166 42.1254 35.1556 42.4652 35.1556 42.8829ZM30.3556 49.3749C29.8267 49.3742 29.3188 49.1682 28.9389 48.8002C28.559 48.4322 28.3369 47.931 28.3194 47.4024H32.3919C32.3744 47.931 32.1523 48.4322 31.7724 48.8002C31.3925 49.1682 30.8845 49.3742 30.3556 49.3749ZM34.3981 46.2774H26.3131C26.1183 46.2687 25.9342 46.1852 25.7994 46.0443C25.6646 45.9033 25.5893 45.7157 25.5893 45.5207C25.5893 45.3256 25.6646 45.1381 25.7994 44.9971C25.9342 44.8561 26.1183 44.7726 26.3131 44.7639H34.3996C34.5011 44.7607 34.6021 44.778 34.6968 44.8146C34.7914 44.8512 34.8777 44.9064 34.9506 44.9771C35.0235 45.0477 35.0814 45.1322 35.121 45.2257C35.1606 45.3191 35.181 45.4196 35.181 45.5211C35.181 45.6225 35.1606 45.723 35.121 45.8164C35.0814 45.9099 35.0235 45.9944 34.9506 46.065C34.8777 46.1357 34.7914 46.1909 34.6968 46.2275C34.6021 46.2641 34.5011 46.2814 34.3996 46.2782L34.3981 46.2774ZM34.4334 40.9997H26.2869C26.1511 38.9357 25.2684 37.0022 23.8194 35.6297C22.8771 34.7448 22.127 33.6754 21.6159 32.488C21.1048 31.3007 20.8437 30.0208 20.8486 28.7282C20.8486 23.4812 25.1131 19.2114 30.3556 19.2114C35.5981 19.2114 39.8626 23.4812 39.8626 28.7282C39.8626 31.3629 38.8104 33.8132 36.9001 35.6259C35.4511 37.0007 34.5699 38.9349 34.4334 40.9997Z" fill="#181818" stroke="#181818" stroke-width="0.4"/>
<path d="M36.6958 26.0876L35.8123 24.5524C35.705 24.3672 35.5366 24.225 35.336 24.1503C35.1354 24.0756 34.9151 24.073 34.7128 24.1429L33.8188 24.4534C33.3699 24.0866 32.8653 23.794 32.3241 23.5864L32.1448 22.6586C32.1042 22.4486 31.9919 22.2592 31.827 22.1229C31.6621 21.9866 31.455 21.9119 31.2411 21.9116H29.4696C29.0286 21.9116 28.6483 22.2259 28.5658 22.6579L28.3866 23.5864C27.8453 23.7943 27.3405 24.087 26.8911 24.4534L25.9978 24.1429C25.7954 24.073 25.575 24.0758 25.3744 24.1506C25.1738 24.2255 25.0055 24.3678 24.8983 24.5531L24.0148 26.0861C23.9084 26.2713 23.8695 26.4876 23.9048 26.6983C23.9401 26.9089 24.0473 27.1008 24.2083 27.2411L24.9208 27.8599C24.8295 28.434 24.8295 29.019 24.9208 29.5931L24.2113 30.2051C24.0493 30.3449 23.9411 30.5367 23.9052 30.7477C23.8693 30.9586 23.9081 31.1754 24.0148 31.3609L24.8983 32.8946C25.1188 33.2779 25.5808 33.4496 25.9963 33.3056L26.8866 32.9981C27.3376 33.3638 27.8439 33.6555 28.3866 33.8621L28.5658 34.7891C28.6483 35.2226 29.0286 35.5369 29.4696 35.5369H31.2411C31.6821 35.5369 32.0623 35.2219 32.1448 34.7899L32.3233 33.8621C32.866 33.6556 33.3724 33.364 33.8233 32.9981L34.7128 33.3056C34.9153 33.3757 35.1358 33.373 35.3365 33.298C35.5372 33.223 35.7054 33.0803 35.8123 32.8946L36.6958 31.3616C36.8023 31.1764 36.8412 30.9598 36.8056 30.7491C36.77 30.5384 36.6623 30.3466 36.5008 30.2066L35.7853 29.5879C35.8764 29.017 35.8764 28.4353 35.7853 27.8644L36.5016 27.2419C36.663 27.1019 36.7707 26.9101 36.8063 26.6994C36.8419 26.4886 36.8031 26.2721 36.6966 26.0869L36.6958 26.0876ZM34.6596 27.9529C34.7518 28.4645 34.7518 28.9885 34.6596 29.5001C34.6307 29.6573 34.6432 29.8193 34.6957 29.9703C34.7483 30.1212 34.8392 30.2559 34.9596 30.3611L35.6361 30.9461L34.9213 32.1874L34.0776 31.8956C33.9274 31.8437 33.7664 31.832 33.6103 31.8616C33.4543 31.8912 33.3087 31.9611 33.1881 32.0644C32.7882 32.4025 32.331 32.6662 31.8381 32.8429C31.5306 32.9524 31.3026 33.2156 31.2418 33.5306L31.0723 34.4119H29.6383L29.4688 33.5306C29.4376 33.3741 29.3663 33.2284 29.2617 33.1078C29.1572 32.9872 29.0231 32.8959 28.8726 32.8429C28.3796 32.6663 27.9223 32.4026 27.5226 32.0644C27.4019 31.9611 27.2563 31.8912 27.1003 31.8616C26.9442 31.832 26.7832 31.8437 26.6331 31.8956L25.7893 32.1874L25.0746 30.9469L25.7443 30.3671C25.9881 30.1586 26.1043 29.8286 26.0466 29.5046C25.953 28.9898 25.953 28.4624 26.0466 27.9476C26.0754 27.7906 26.063 27.6288 26.0105 27.478C25.958 27.3272 25.8674 27.1926 25.7473 27.0874L25.0738 26.5024L25.7886 25.2611L26.6353 25.5551C26.9398 25.6616 27.2826 25.5956 27.5301 25.3856C27.9274 25.0468 28.3827 24.7825 28.8741 24.6056C29.1801 24.4954 29.4081 24.2329 29.4688 23.9179L29.6383 23.0366H31.0723L31.2418 23.9179C31.3018 24.2329 31.5306 24.4954 31.8358 24.6056C32.3272 24.7824 32.7826 25.0466 33.1798 25.3856C33.4281 25.5956 33.7723 25.6616 34.0746 25.5551L34.9221 25.2611L35.6368 26.5024L34.9596 27.0911C34.8391 27.1964 34.7481 27.3312 34.6955 27.4823C34.6429 27.6334 34.6305 27.7955 34.6596 27.9529Z" fill="#181818" stroke="#181818" stroke-width="0.4"/>
<path d="M30.3551 25.9435C29.6178 25.9443 28.9109 26.2375 28.3895 26.7589C27.8681 27.2803 27.5749 27.9872 27.5741 28.7245C27.5741 30.2575 28.8213 31.5048 30.3551 31.5048C31.8888 31.5048 33.1361 30.2575 33.1361 28.7245C33.1353 27.9872 32.8421 27.2803 32.3207 26.7589C31.7993 26.2375 31.0924 25.9443 30.3551 25.9435ZM30.3551 30.3798C29.9162 30.3794 29.4953 30.2049 29.1848 29.8945C28.8744 29.5842 28.6997 29.1634 28.6991 28.7245C28.6991 27.811 29.4416 27.0685 30.3551 27.0685C31.2686 27.0685 32.0111 27.811 32.0111 28.7245C32.0105 29.1634 31.8358 29.5842 31.5254 29.8945C31.2149 30.2049 30.794 30.3794 30.3551 30.3798ZM30.9176 16.1747V15.0625C30.9176 14.9133 30.8583 14.7702 30.7528 14.6648C30.6474 14.5593 30.5043 14.5 30.3551 14.5C30.2059 14.5 30.0628 14.5593 29.9573 14.6648C29.8519 14.7702 29.7926 14.9133 29.7926 15.0625V16.1747C29.7926 16.3239 29.8519 16.467 29.9573 16.5725C30.0628 16.678 30.2059 16.7373 30.3551 16.7373C30.5043 16.7373 30.6474 16.678 30.7528 16.5725C30.8583 16.467 30.9176 16.3239 30.9176 16.1747ZM24.0813 18.4195C24.1801 18.4194 24.277 18.3934 24.3625 18.344C24.4479 18.2946 24.5189 18.2236 24.5682 18.1381C24.6175 18.0526 24.6435 17.9556 24.6435 17.8569C24.6434 17.7582 24.6175 17.6612 24.5681 17.5758L24.0116 16.6113C23.9749 16.5468 23.9259 16.4902 23.8672 16.4447C23.8086 16.3993 23.7416 16.3659 23.67 16.3464C23.5984 16.327 23.5237 16.3219 23.4501 16.3315C23.3765 16.341 23.3056 16.365 23.2414 16.4021C23.1771 16.4392 23.1208 16.4887 23.0758 16.5476C23.0307 16.6065 22.9978 16.6738 22.9788 16.7455C22.9598 16.8172 22.9552 16.892 22.9653 16.9655C22.9753 17.039 22.9998 17.1098 23.0373 17.1738L23.5938 18.1383C23.6432 18.2238 23.7143 18.2949 23.7999 18.3442C23.8855 18.3936 23.9825 18.4196 24.0813 18.4195ZM19.2063 22.9368C19.3355 23.0102 19.4884 23.0295 19.6317 22.9906C19.7751 22.9517 19.8972 22.8577 19.9715 22.729C20.0458 22.6004 20.0661 22.4476 20.0282 22.304C19.9902 22.1604 19.897 22.0376 19.7688 21.9625L18.8051 21.406C18.7411 21.3685 18.6703 21.344 18.5968 21.3339C18.5233 21.3239 18.4486 21.3285 18.3768 21.3474C18.3051 21.3664 18.2379 21.3994 18.1789 21.4444C18.12 21.4895 18.0706 21.5458 18.0335 21.61C17.9964 21.6742 17.9724 21.7452 17.9628 21.8188C17.9532 21.8923 17.9583 21.967 17.9778 22.0386C17.9972 22.1102 18.0306 22.1773 18.0761 22.2359C18.1215 22.2945 18.1781 22.3436 18.2426 22.3803L19.2063 22.9368ZM16.6938 28.1613C16.5447 28.1613 16.4016 28.2205 16.2961 28.326C16.1906 28.4315 16.1313 28.5746 16.1313 28.7238C16.1313 28.8729 16.1906 29.016 16.2961 29.1215C16.4016 29.227 16.5447 29.2863 16.6938 29.2863H17.8061C17.9553 29.2863 18.0984 29.227 18.2038 29.1215C18.3093 29.016 18.3686 28.8729 18.3686 28.7238C18.3686 28.5746 18.3093 28.4315 18.2038 28.326C18.0984 28.2205 17.9553 28.1613 17.8061 28.1613H16.6938ZM18.5246 36.1173C18.6231 36.1174 18.7198 36.0915 18.8051 36.0423L19.7688 35.485C19.8355 35.4495 19.8943 35.401 19.9418 35.3423C19.9893 35.2836 20.0245 35.2159 20.0452 35.1433C20.066 35.0707 20.072 34.9947 20.0627 34.9197C20.0535 34.8448 20.0293 34.7725 19.9915 34.7071C19.9537 34.6417 19.9032 34.5846 19.8429 34.5392C19.7825 34.4938 19.7137 34.4609 19.6404 34.4427C19.5672 34.4244 19.491 34.4211 19.4164 34.4329C19.3418 34.4448 19.2704 34.4715 19.2063 34.5115L18.2426 35.068C18.1351 35.1299 18.0511 35.2255 18.0036 35.3401C17.9561 35.4546 17.9478 35.5816 17.98 35.7014C18.0121 35.8212 18.083 35.9269 18.1815 36.0023C18.28 36.0776 18.4006 36.1176 18.5246 36.1173ZM40.9413 35.485L41.9051 36.0423C42.0342 36.1157 42.1871 36.135 42.3305 36.0961C42.4738 36.0572 42.596 35.9632 42.6702 35.8345C42.7445 35.7059 42.7649 35.5531 42.7269 35.4095C42.689 35.2659 42.5957 35.1431 42.4676 35.068L41.5038 34.5115C41.3751 34.443 41.2249 34.4271 41.0847 34.4672C40.9445 34.5073 40.8254 34.6003 40.7524 34.7266C40.6795 34.8528 40.6584 35.0025 40.6936 35.144C40.7289 35.2855 40.8177 35.4077 40.9413 35.485ZM44.0163 29.2863C44.1655 29.2863 44.3086 29.227 44.4141 29.1215C44.5196 29.016 44.5788 28.8729 44.5788 28.7238C44.5788 28.5746 44.5196 28.4315 44.4141 28.326C44.3086 28.2205 44.1655 28.1613 44.0163 28.1613H42.9041C42.7549 28.1613 42.6118 28.2205 42.5064 28.326C42.4009 28.4315 42.3416 28.5746 42.3416 28.7238C42.3416 28.8729 42.4009 29.016 42.5064 29.1215C42.6118 29.227 42.7549 29.2863 42.9041 29.2863H44.0163ZM41.5038 22.9368L42.4676 22.3803C42.5321 22.3436 42.5887 22.2945 42.6341 22.2359C42.6796 22.1773 42.713 22.1102 42.7324 22.0386C42.7519 21.967 42.7569 21.8923 42.7474 21.8188C42.7378 21.7452 42.7138 21.6742 42.6767 21.61C42.6396 21.5458 42.5902 21.4895 42.5313 21.4444C42.4723 21.3994 42.4051 21.3664 42.3334 21.3474C42.2616 21.3285 42.1869 21.3239 42.1134 21.3339C42.0399 21.344 41.9691 21.3685 41.9051 21.406L40.9413 21.9625C40.8769 21.9992 40.8203 22.0482 40.7748 22.1069C40.7294 22.1655 40.696 22.2325 40.6765 22.3041C40.6571 22.3757 40.652 22.4504 40.6616 22.524C40.6711 22.5976 40.6951 22.6685 40.7322 22.7327C40.7693 22.797 40.8188 22.8533 40.8777 22.8983C40.9366 22.9434 41.0039 22.9763 41.0756 22.9953C41.1473 23.0143 41.2221 23.0189 41.2956 23.0088C41.3691 22.9988 41.4399 22.9743 41.5038 22.9368ZM36.6288 18.4195C36.7276 18.4196 36.8247 18.3936 36.9103 18.3442C36.9959 18.2949 37.0669 18.2238 37.1163 18.1383L37.6728 17.1738C37.7104 17.1098 37.7349 17.039 37.7449 16.9655C37.755 16.892 37.7504 16.8172 37.7314 16.7455C37.7124 16.6738 37.6795 16.6065 37.6344 16.5476C37.5894 16.4887 37.5331 16.4392 37.4688 16.4021C37.4046 16.365 37.3337 16.341 37.2601 16.3315C37.1865 16.3219 37.1118 16.327 37.0402 16.3464C36.9686 16.3659 36.9016 16.3993 36.843 16.4447C36.7843 16.4902 36.7353 16.5468 36.6986 16.6113L36.1428 17.5758C36.0935 17.6612 36.0675 17.7581 36.0675 17.8567C36.0674 17.9554 36.0933 18.0523 36.1426 18.1378C36.1918 18.2232 36.2626 18.2943 36.348 18.3437C36.4333 18.3932 36.5302 18.4193 36.6288 18.4195Z" fill="#181818" stroke="#181818" stroke-width="0.4"/>
</svg>
