<svg width="64" height="64" viewBox="0 0 64 64" fill="none" xmlns="http://www.w3.org/2000/svg">
<path fill-rule="evenodd" clip-rule="evenodd" d="M59.8716 28.6552C59.941 29.475 59.9765 30.3045 59.9765 31.1421C59.9776 33.2533 59.7498 35.3584 59.2971 37.4206C57.9854 43.3845 54.8451 48.6663 50.4943 52.6464C47.4077 55.4702 43.7118 57.6389 39.628 58.9315C39.1761 59.0746 38.693 58.8238 38.5499 58.3719C38.4069 57.92 38.6577 57.4369 39.1096 57.2938C42.9526 56.0773 46.4302 54.0361 49.3349 51.3789C53.429 47.6335 56.385 42.6637 57.6194 37.0515C58.0454 35.1106 58.2598 33.1292 58.2586 31.1421C58.2586 30.3966 58.2288 29.6581 58.1704 28.9275C56.1414 28.7983 54.5335 27.1095 54.5335 25.0481C54.5335 22.9026 56.2754 21.1608 58.4209 21.1608C60.5662 21.1608 62.3081 22.9026 62.3081 25.0481C62.3081 26.6809 61.2994 28.0799 59.8716 28.6552ZM58.4209 22.8787C57.2234 22.8787 56.2513 23.8507 56.2513 25.0481C56.2513 26.2456 57.2234 27.2176 58.4209 27.2176C59.6182 27.2176 60.5903 26.2456 60.5903 25.0481C60.5903 23.8507 59.6182 22.8787 58.4209 22.8787ZM18.4564 57.5283C15.7974 56.2766 13.3425 54.6308 11.1746 52.6464C6.82374 48.6663 3.6835 43.3845 2.3718 37.4206C1.91904 35.3584 1.69124 33.2533 1.69239 31.1421C1.69239 28.9869 1.927 26.8861 2.3718 24.8637C2.47364 24.4006 2.93219 24.1074 3.39515 24.2093C3.85811 24.3111 4.15137 24.7697 4.04953 25.2326C3.63086 27.1361 3.41024 29.1135 3.41024 31.1421C3.41024 33.1706 3.63086 35.148 4.04953 37.0515C5.28393 42.6637 8.23987 47.6335 12.334 51.3789C14.3467 53.2212 16.6224 54.7537 19.0864 55.9259C19.7865 54.8996 20.9651 54.2254 22.3 54.2254C24.4455 54.2254 26.1874 55.9671 26.1874 58.1126C26.1874 60.2581 24.4455 62 22.3 62C20.1545 62 18.4128 60.2581 18.4128 58.1126C18.4128 57.9141 18.4277 57.7189 18.4564 57.5283ZM22.3 55.9432C21.1027 55.9432 20.1306 56.9153 20.1306 58.1126C20.1306 59.31 21.1027 60.2821 22.3 60.2821C23.4974 60.2821 24.4695 59.31 24.4695 58.1126C24.4695 56.9153 23.4974 55.9432 22.3 55.9432ZM15.2533 8.57693C15.5096 9.10499 15.6424 9.68447 15.6416 10.2715C15.6416 12.4169 13.8997 14.1589 11.7542 14.1589C9.60888 14.1589 7.86697 12.4169 7.86697 10.2715C7.86697 8.12599 9.60888 6.38421 11.7542 6.38421C12.635 6.38304 13.4898 6.68231 14.1775 7.23259C16.5872 5.54884 19.2385 4.2406 22.0409 3.35257C24.8159 2.47413 27.7703 2 30.8344 2C33.8986 2 36.8529 2.47413 39.628 3.35257C43.7118 4.64537 47.4077 6.81392 50.4943 9.6377C50.6623 9.79152 50.7624 10.0057 50.7725 10.2333C50.7826 10.4609 50.702 10.6831 50.5483 10.8512C50.3945 11.0192 50.1803 11.1193 49.9528 11.1294C49.7252 11.1395 49.503 11.0589 49.3349 10.9052C46.4302 8.24796 42.9526 6.2069 39.1096 4.99042C36.4981 4.16364 33.718 3.71785 30.8344 3.71785C27.951 3.71785 25.1708 4.16364 22.5593 4.99042C19.9586 5.81452 17.4959 7.02343 15.2533 8.57693ZM11.7542 8.10207C10.5569 8.10207 9.58483 9.07412 9.58483 10.2715C9.58483 11.4688 10.5569 12.441 11.7542 12.441C12.9517 12.441 13.9238 11.4688 13.9238 10.2715C13.9238 9.07412 12.9517 8.10207 11.7542 8.10207Z" fill="#181818"/>
<path d="M20.6023 20.2656C25.62 19.9434 28.1979 21.6466 30.2694 23.0276C31.19 23.6261 32.0186 24.1785 32.9393 24.5007C33.3996 24.6388 33.86 24.7309 34.3203 24.7309C35.287 24.7309 36.2997 24.4086 37.1744 23.7642C37.4506 23.58 37.4966 23.2118 37.3125 22.9356C37.1283 22.6594 36.7601 22.6133 36.4839 22.7975C35.4711 23.534 34.3203 23.7181 33.2615 23.3959C32.479 23.1657 31.7424 22.6594 30.8678 22.107C28.9344 20.818 26.3565 19.1148 21.7072 19.1148C23.2723 17.2734 27.3693 13.4987 34.6886 14.0511C37.0363 14.2352 38.7855 16.4448 38.6474 19.0227C38.6474 19.1608 38.6474 19.2989 38.6014 19.4831C38.5554 19.8513 38.4173 20.2656 38.2792 20.6339C35.8394 18.4703 32.571 17.2734 28.5201 17.0893C28.1979 17.0893 27.9217 17.3195 27.9217 17.6417C27.9217 17.9639 28.1518 18.2401 28.4741 18.2401C34.7806 18.4703 38.8316 21.2323 40.9031 26.5722C40.9951 26.8024 41.2253 26.9405 41.4555 26.9405C41.5475 26.9405 41.5936 26.9405 41.6856 26.8944C42.0079 26.7563 42.146 26.4341 42.0079 26.1119C41.2713 24.2705 40.3507 22.7054 39.1538 21.4165C39.43 20.818 39.6602 20.2196 39.7522 19.5751C39.7983 19.391 39.7983 19.1608 39.7983 19.0227C39.9824 15.8464 37.7268 13.0384 34.7806 12.8082C24.5612 12.0256 20.188 19.0688 20.0039 19.391C19.9118 19.5751 19.9118 19.8053 20.0039 19.9894C20.188 20.1736 20.3722 20.3117 20.6023 20.2656ZM25.62 47.7476C25.8502 47.7476 26.0343 47.6095 26.1724 47.4253C26.2645 47.2412 26.2645 47.011 26.1264 46.8269C23.3183 42.6378 23.5025 39.5536 23.6866 37.0678C23.7326 36.009 23.8247 34.9503 23.5945 34.0296C23.2723 32.5565 22.3056 31.3597 20.8325 30.7152C20.5103 30.5771 20.188 30.7152 20.0499 30.9914C19.9118 31.2676 20.0499 31.6359 20.3261 31.774C21.431 32.2803 22.2135 33.155 22.4437 34.2598C22.6278 35.0423 22.5818 35.963 22.4897 36.9757C22.3516 39.2774 22.1675 42.3616 24.4692 46.4126C22.1215 45.9983 16.7816 44.3871 13.6053 37.7123C12.5925 35.5947 13.6513 32.9708 15.9069 31.82C16.045 31.7279 16.1831 31.6819 16.3212 31.6359C16.6895 31.4978 17.0578 31.4057 17.4721 31.3597C16.8276 34.582 17.426 37.9885 19.3134 41.5791C19.4055 41.7632 19.6356 41.9013 19.8198 41.9013C19.9118 41.9013 20.0039 41.9013 20.096 41.8553C20.3722 41.7172 20.5103 41.3489 20.3261 41.0727C17.38 35.5027 17.7022 30.6231 21.3389 26.1119C21.523 25.8357 21.523 25.4674 21.2468 25.2833C20.9706 25.0991 20.6023 25.0991 20.4182 25.3753C19.1753 26.8944 18.3007 28.5056 17.7943 30.2088C17.1498 30.2549 16.5054 30.393 15.8609 30.6231C15.6768 30.7152 15.4926 30.7612 15.3545 30.8533C12.5005 32.2803 11.2115 35.5947 12.5005 38.3107C16.9657 47.4714 25.2517 47.7476 25.62 47.7476ZM36.5299 37.39C35.4251 38.4028 34.8727 39.8298 35.0568 41.441C35.1029 41.7632 35.3791 41.9934 35.7013 41.9934C36.0235 41.9473 36.2537 41.6711 36.2537 41.3489C36.1156 40.106 36.5299 39.0012 37.3585 38.2647C37.9569 37.7123 38.7395 37.344 39.7062 36.8376C41.7777 35.8249 44.5397 34.3979 46.8414 30.393C47.67 32.6486 48.8669 38.1266 44.7239 44.157C43.3889 46.0904 40.6269 46.5047 38.4633 45.0776C38.3252 44.9856 38.2331 44.8935 38.095 44.8014C37.7728 44.5713 37.4966 44.249 37.2664 43.9728C40.3967 42.9601 43.0206 40.7044 45.1842 37.298C45.3683 37.0218 45.2763 36.6535 45.0001 36.4694C44.7239 36.2852 44.3556 36.3773 44.1715 36.6535C40.811 41.9934 36.3918 44.157 30.7297 43.2823C30.4075 43.2363 30.0852 43.4665 30.0392 43.7887C29.9932 44.1109 30.2233 44.4332 30.5456 44.4792C31.4202 44.6173 32.2488 44.6633 33.0774 44.6633C34.0901 44.6633 35.1029 44.5713 36.0235 44.3411C36.3918 44.8935 36.8061 45.3538 37.3125 45.7681C37.4506 45.9062 37.6347 45.9983 37.7728 46.1364C38.8316 46.8269 39.9824 47.1491 41.1332 47.1491C42.9285 47.1491 44.6318 46.3666 45.6445 44.8475C51.4447 36.3773 47.5319 29.058 47.3478 28.7818C47.2557 28.5977 47.0255 28.4596 46.7954 28.4596C46.5652 28.4596 46.3811 28.5977 46.289 28.7818C44.1254 33.2931 41.3634 34.6741 39.1538 35.7789C38.1871 36.2852 37.2664 36.7456 36.5299 37.39Z" fill="#181818" stroke="#181818" stroke-width="0.4"/>
</svg>
