<svg width="64" height="64" viewBox="0 0 64 64" fill="none" xmlns="http://www.w3.org/2000/svg">
<path fill-rule="evenodd" clip-rule="evenodd" d="M59.8716 28.6552C59.941 29.475 59.9765 30.3045 59.9765 31.1421C59.9776 33.2533 59.7498 35.3584 59.2971 37.4206C57.9854 43.3845 54.8451 48.6663 50.4943 52.6464C47.4077 55.4702 43.7118 57.6389 39.628 58.9315C39.1761 59.0746 38.693 58.8238 38.5499 58.3719C38.4069 57.92 38.6577 57.4369 39.1096 57.2938C42.9526 56.0773 46.4302 54.0361 49.3349 51.3789C53.429 47.6335 56.385 42.6637 57.6194 37.0515C58.0454 35.1106 58.2598 33.1292 58.2586 31.1421C58.2586 30.3966 58.2288 29.6581 58.1704 28.9275C56.1414 28.7983 54.5335 27.1095 54.5335 25.0481C54.5335 22.9026 56.2754 21.1608 58.4209 21.1608C60.5662 21.1608 62.3081 22.9026 62.3081 25.0481C62.3081 26.6809 61.2994 28.0799 59.8716 28.6552ZM58.4209 22.8787C57.2234 22.8787 56.2513 23.8507 56.2513 25.0481C56.2513 26.2456 57.2234 27.2176 58.4209 27.2176C59.6182 27.2176 60.5903 26.2456 60.5903 25.0481C60.5903 23.8507 59.6182 22.8787 58.4209 22.8787ZM18.4564 57.5283C15.7974 56.2766 13.3425 54.6308 11.1746 52.6464C6.82374 48.6663 3.6835 43.3845 2.3718 37.4206C1.91904 35.3584 1.69124 33.2533 1.69239 31.1421C1.69239 28.9869 1.927 26.8861 2.3718 24.8637C2.47364 24.4006 2.93219 24.1074 3.39515 24.2093C3.85811 24.3111 4.15137 24.7697 4.04953 25.2326C3.63086 27.1361 3.41024 29.1135 3.41024 31.1421C3.41024 33.1706 3.63086 35.148 4.04953 37.0515C5.28393 42.6637 8.23987 47.6335 12.334 51.3789C14.3467 53.2212 16.6224 54.7537 19.0864 55.9259C19.7865 54.8996 20.9651 54.2254 22.3 54.2254C24.4455 54.2254 26.1874 55.9671 26.1874 58.1126C26.1874 60.2581 24.4455 62 22.3 62C20.1545 62 18.4128 60.2581 18.4128 58.1126C18.4128 57.9141 18.4277 57.7189 18.4564 57.5283ZM22.3 55.9432C21.1027 55.9432 20.1306 56.9153 20.1306 58.1126C20.1306 59.31 21.1027 60.2821 22.3 60.2821C23.4974 60.2821 24.4695 59.31 24.4695 58.1126C24.4695 56.9153 23.4974 55.9432 22.3 55.9432ZM15.2533 8.57693C15.5096 9.10499 15.6424 9.68447 15.6416 10.2715C15.6416 12.4169 13.8997 14.1589 11.7542 14.1589C9.60888 14.1589 7.86697 12.4169 7.86697 10.2715C7.86697 8.12599 9.60888 6.38421 11.7542 6.38421C12.635 6.38304 13.4898 6.68231 14.1775 7.23259C16.5872 5.54884 19.2385 4.2406 22.0409 3.35257C24.8159 2.47413 27.7703 2 30.8344 2C33.8986 2 36.8529 2.47413 39.628 3.35257C43.7118 4.64537 47.4077 6.81392 50.4943 9.6377C50.6623 9.79152 50.7624 10.0057 50.7725 10.2333C50.7826 10.4609 50.702 10.6831 50.5483 10.8512C50.3945 11.0192 50.1803 11.1193 49.9528 11.1294C49.7252 11.1395 49.503 11.0589 49.3349 10.9052C46.4302 8.24796 42.9526 6.2069 39.1096 4.99042C36.4981 4.16364 33.718 3.71785 30.8344 3.71785C27.951 3.71785 25.1708 4.16364 22.5593 4.99042C19.9586 5.81452 17.4959 7.02343 15.2533 8.57693ZM11.7542 8.10207C10.5569 8.10207 9.58483 9.07412 9.58483 10.2715C9.58483 11.4688 10.5569 12.441 11.7542 12.441C12.9517 12.441 13.9238 11.4688 13.9238 10.2715C13.9238 9.07412 12.9517 8.10207 11.7542 8.10207Z" fill="#181818"/>
<path d="M34.6674 33.9219L38.9583 38.2128C39.6261 38.8806 39.6261 39.9633 38.9583 40.6311C38.2905 41.2989 37.2077 41.2989 36.5399 40.6311L33.1167 37.2079" stroke="#181818" stroke-width="1.46341" stroke-miterlimit="10" stroke-linecap="round" stroke-linejoin="round"/>
<path d="M33.1166 37.2075L36.1694 40.2603C36.8372 40.9282 36.8372 42.0109 36.1694 42.6787C35.5016 43.3465 34.4189 43.3465 33.7511 42.6787L31.5518 40.4794" stroke="#181818" stroke-width="1.46341" stroke-miterlimit="10" stroke-linecap="round" stroke-linejoin="round"/>
<path d="M31.552 40.4795L32.893 41.8205C33.5609 42.4884 33.5609 43.5711 32.893 44.2389C32.2252 44.9067 31.1425 44.9067 30.4747 44.2389L29.8479 43.6121M40.8593 24.4452L40.4965 24.6263C39.8501 24.9488 39.1446 25.1358 38.4233 25.1757C37.702 25.2156 36.9802 25.1076 36.3022 24.8583C35.3443 24.5061 34.3218 24.3642 33.3042 24.4422C32.2866 24.5202 31.2976 24.8162 30.4046 25.3102L27.2196 27.0721C26.1787 27.6479 25.8619 28.9962 26.5375 29.9753C27.0583 30.73 28.0236 31.0372 28.8847 30.7221L32.8959 29.2546C33.3205 29.0993 33.7806 29.0686 34.2221 29.166C34.6635 29.2635 35.0679 29.4852 35.3876 29.8049L41.3769 35.7941C42.0447 36.4619 42.0447 37.5446 41.3769 38.2125C40.709 38.8803 39.6263 38.8803 38.9585 38.2125L34.2288 33.4827" stroke="#181818" stroke-width="1.46341" stroke-miterlimit="10" stroke-linecap="round" stroke-linejoin="round"/>
<path d="M30.4045 25.3103C29.5114 24.8162 28.5225 24.5202 27.5049 24.4422C26.4873 24.3642 25.4648 24.5061 24.5069 24.8584C23.8289 25.1076 23.107 25.2156 22.3857 25.1757C21.6645 25.1358 20.959 24.9489 20.3126 24.6263L19.9636 24.4522M41.4637 35.7263L44.5701 34.0731M18.9988 35.4519L16.4116 33.4029M26.2045 37.5201L24.4111 39.3135M26.2045 37.5201C26.8723 36.8523 26.8723 35.7696 26.2045 35.1017C25.5367 34.4339 24.454 34.4339 23.7861 35.1017L21.9927 36.8952C21.3249 37.563 21.3249 38.6457 21.9927 39.3135C22.6605 39.9814 23.7433 39.9814 24.4111 39.3135M26.2045 37.5201C26.8723 36.8523 27.955 36.8523 28.6229 37.5201C29.2907 38.1879 29.2907 39.2706 28.6229 39.9385L26.8295 41.7319C26.1616 42.3997 25.0789 42.3997 24.4111 41.7319C23.7433 41.0641 23.7433 39.9814 24.4111 39.3135" stroke="#181818" stroke-width="1.46341" stroke-miterlimit="10" stroke-linecap="round" stroke-linejoin="round"/>
<path d="M30.2818 43.1163L29.6498 43.7483C28.982 44.4161 27.8993 44.4161 27.2315 43.7483C26.5636 43.0804 26.5636 41.9977 27.2315 41.3299L27.8634 40.6979C28.5313 40.0301 29.614 40.0301 30.2818 40.6979C30.9496 41.3657 30.9496 42.4484 30.2818 43.1163ZM20.3724 33.6788L19.5742 34.477C18.9063 35.1448 18.9063 36.2275 19.5742 36.8954C20.242 37.5632 21.3247 37.5632 21.9925 36.8954L22.7907 36.0972C23.4586 35.4293 23.4586 34.3466 22.7907 33.6788C22.1229 33.011 21.0402 33.011 20.3724 33.6788ZM48.4043 34.026L45.2069 35.1762L40.2555 22.8602L46.0625 19.7559L48.4043 34.026ZM12.4043 34.026L15.6017 35.1762L20.5531 22.8602L14.7461 19.7559L12.4043 34.026Z" stroke="#181818" stroke-width="1.46341" stroke-miterlimit="10" stroke-linecap="round" stroke-linejoin="round"/>
</svg>
